<svg width="40" height="40" viewBox="0 0 40 40" fill="none" xmlns="http://www.w3.org/2000/svg">
<circle cx="20" cy="20" r="19" stroke="#FF0000" stroke-width="2"/>
<path d="M26.9535 29V27C26.9535 25.9391 26.5615 24.9217 25.8637 24.1716C25.1658 23.4214 24.2194 23 23.2326 23H16.7209C15.7341 23 14.7876 23.4214 14.0898 24.1716C13.392 24.9217 13 25.9391 13 27V29" stroke="#FF0000" stroke-width="2" stroke-linecap="round" stroke-linejoin="round"/>
<path d="M19.9767 19C22.0318 19 23.6977 17.2091 23.6977 15C23.6977 12.7909 22.0318 11 19.9767 11C17.9217 11 16.2558 12.7909 16.2558 15C16.2558 17.2091 17.9217 19 19.9767 19Z" stroke="#FF0000" stroke-width="2" stroke-linecap="round" stroke-linejoin="round"/>
<path d="M35.3256 19H27.8837" stroke="#FF0000" stroke-width="2" stroke-linecap="round" stroke-linejoin="round"/>
</svg>
